<svg width="48" height="48" viewBox="0 0 48 48" fill="none" xmlns="http://www.w3.org/2000/svg">
<circle cx="24" cy="24" r="19" stroke="white" stroke-width="2"/>
<circle cx="24" cy="18" r="5" stroke="white" stroke-width="2" stroke-linejoin="round"/>
<path d="M33 33C33 31.8181 32.7672 30.6478 32.3149 29.5558C31.8626 28.4639 31.1997 27.4718 30.364 26.636C29.5282 25.8003 28.5361 25.1374 27.4442 24.6851C26.3522 24.2328 25.1819 24 24 24C22.8181 24 21.6478 24.2328 20.5558 24.6851C19.4639 25.1374 18.4718 25.8003 17.636 26.636C16.8003 27.4718 16.1374 28.4639 15.6851 29.5558C15.2328 30.6478 15 31.8181 15 33L24 33H33Z" stroke="white" stroke-width="2" stroke-linejoin="round"/>
</svg>
